<?xml version="1.0" encoding="windows-1252" standalone="no"?>
<svg xmlns="http://www.w3.org/2000/svg" xmlns:xlink="http://www.w3.org/1999/xlink" contentStyleType="text/css" height="1333px" preserveAspectRatio="none" style="width:1159px;height:1333px;background:#FFFFFF;" version="1.1" viewBox="0 0 1159 1333" width="1159px" zoomAndPan="magnify"><defs/><g><!--class flocking_algorithm.AgentsInfo--><g id="elem_flocking_algorithm.AgentsInfo"><rect codeLine="2" fill="#F1F1F1" height="276.1563" id="flocking_algorithm.AgentsInfo" rx="2.5" ry="2.5" style="stroke:#181818;stroke-width:0.5;" width="467" x="7" y="7"/><ellipse cx="196.75" cy="23" fill="#ADD1B2" rx="11" ry="11" style="stroke:#181818;stroke-width:1.0;"/><path d="M199.0938,18.6719 C198.1563,18.2344 197.5625,18.0938 196.6875,18.0938 C194.0625,18.0938 192.0625,20.1719 192.0625,22.8906 L192.0625,24.0156 C192.0625,26.5938 194.1719,28.4844 197.0625,28.4844 C198.2813,28.4844 199.4375,28.1875 200.1875,27.6406 C200.7656,27.2344 201.0938,26.7813 201.0938,26.3906 C201.0938,25.9375 200.7031,25.5469 200.2344,25.5469 C200.0156,25.5469 199.8125,25.625 199.625,25.8125 C199.1719,26.2969 199.1719,26.2969 198.9844,26.3906 C198.5625,26.6563 197.875,26.7813 197.1094,26.7813 C195.0625,26.7813 193.7656,25.6875 193.7656,23.9844 L193.7656,22.8906 C193.7656,21.1094 195.0156,19.7969 196.75,19.7969 C197.3281,19.7969 197.9375,19.9531 198.4063,20.2031 C198.8906,20.4844 199.0625,20.7031 199.1563,21.1094 C199.2188,21.5156 199.25,21.6406 199.3906,21.7656 C199.5313,21.9063 199.7656,22.0156 199.9844,22.0156 C200.25,22.0156 200.5156,21.875 200.6875,21.6563 C200.7969,21.5 200.8281,21.3125 200.8281,20.8906 L200.8281,19.4688 C200.8281,19.0313 200.8125,18.9063 200.7188,18.75 C200.5625,18.4844 200.2813,18.3438 199.9844,18.3438 C199.6875,18.3438 199.4844,18.4375 199.2656,18.75 L199.0938,18.6719 Z " fill="#000000"/><text fill="#000000" font-family="sans-serif" font-size="14" lengthAdjust="spacing" textLength="79" x="217.25" y="27.8467">AgentsInfo</text><line style="stroke:#181818;stroke-width:0.5;" x1="8" x2="473" y1="39" y2="39"/><text fill="#000000" font-family="sans-serif" font-size="14" lengthAdjust="spacing" textLength="162" x="13" y="55.9951">csv_writer : DictWriter</text><text fill="#000000" font-family="sans-serif" font-size="14" lengthAdjust="spacing" textLength="121" x="13" y="72.292">field_names : list</text><text fill="#000000" font-family="sans-serif" font-size="14" lengthAdjust="spacing" textLength="104" x="13" y="88.5889">obstacles : list</text><text fill="#000000" font-family="sans-serif" font-size="14" lengthAdjust="spacing" textLength="107" x="13" y="104.8857">positions : dict</text><text fill="#000000" font-family="sans-serif" font-size="14" lengthAdjust="spacing" textLength="110" x="13" y="121.1826">velocities : dict</text><line style="stroke:#181818;stroke-width:0.5;" x1="8" x2="473" y1="128.4844" y2="128.4844"/><text fill="#000000" font-family="sans-serif" font-size="14" lengthAdjust="spacing" textLength="455" x="13" y="145.4795">create_regular_polygon(center_x, center_y, num_points, radius)</text><text fill="#000000" font-family="sans-serif" font-size="14" lengthAdjust="spacing" textLength="143" x="13" y="161.7764">get_my_position(id)</text><text fill="#000000" font-family="sans-serif" font-size="14" lengthAdjust="spacing" textLength="141" x="13" y="178.0732">get_my_velocity(id)</text><text fill="#000000" font-family="sans-serif" font-size="14" lengthAdjust="spacing" textLength="413" x="13" y="194.3701">get_obstacles_position_and_velocity(my_position, v_shill)</text><text fill="#000000" font-family="sans-serif" font-size="14" lengthAdjust="spacing" textLength="217" x="13" y="210.667">get_other_agents_position(id)</text><text fill="#000000" font-family="sans-serif" font-size="14" lengthAdjust="spacing" textLength="215" x="13" y="226.9639">get_other_agents_velocity(id)</text><text fill="#000000" font-family="sans-serif" font-size="14" lengthAdjust="spacing" textLength="228" x="13" y="243.2607">set_agent_position(id, position)</text><text fill="#000000" font-family="sans-serif" font-size="14" lengthAdjust="spacing" textLength="224" x="13" y="259.5576">set_agent_velocity(id, velocity)</text><text fill="#000000" font-family="sans-serif" font-size="14" lengthAdjust="spacing" textLength="242" x="13" y="275.8545">write_data(position_and_velocity)</text></g><!--class flocking_algorithm.FlockingAlgorithm--><g id="elem_flocking_algorithm.FlockingAlgorithm"><rect codeLine="18" fill="#F1F1F1" height="488.0156" id="flocking_algorithm.FlockingAlgorithm" rx="2.5" ry="2.5" style="stroke:#181818;stroke-width:0.5;" width="410" x="580.5" y="838"/><ellipse cx="715.25" cy="854" fill="#ADD1B2" rx="11" ry="11" style="stroke:#181818;stroke-width:1.0;"/><path d="M717.5938,849.6719 C716.6563,849.2344 716.0625,849.0938 715.1875,849.0938 C712.5625,849.0938 710.5625,851.1719 710.5625,853.8906 L710.5625,855.0156 C710.5625,857.5938 712.6719,859.4844 715.5625,859.4844 C716.7813,859.4844 717.9375,859.1875 718.6875,858.6406 C719.2656,858.2344 719.5938,857.7813 719.5938,857.3906 C719.5938,856.9375 719.2031,856.5469 718.7344,856.5469 C718.5156,856.5469 718.3125,856.625 718.125,856.8125 C717.6719,857.2969 717.6719,857.2969 717.4844,857.3906 C717.0625,857.6563 716.375,857.7813 715.6094,857.7813 C713.5625,857.7813 712.2656,856.6875 712.2656,854.9844 L712.2656,853.8906 C712.2656,852.1094 713.5156,850.7969 715.25,850.7969 C715.8281,850.7969 716.4375,850.9531 716.9063,851.2031 C717.3906,851.4844 717.5625,851.7031 717.6563,852.1094 C717.7188,852.5156 717.75,852.6406 717.8906,852.7656 C718.0313,852.9063 718.2656,853.0156 718.4844,853.0156 C718.75,853.0156 719.0156,852.875 719.1875,852.6563 C719.2969,852.5 719.3281,852.3125 719.3281,851.8906 L719.3281,850.4688 C719.3281,850.0313 719.3125,849.9063 719.2188,849.75 C719.0625,849.4844 718.7813,849.3438 718.4844,849.3438 C718.1875,849.3438 717.9844,849.4375 717.7656,849.75 L717.5938,849.6719 Z " fill="#000000"/><text fill="#000000" font-family="sans-serif" font-size="14" lengthAdjust="spacing" textLength="132" x="735.75" y="858.8467">FlockingAlgorithm</text><line style="stroke:#181818;stroke-width:0.5;" x1="581.5" x2="989.5" y1="870" y2="870"/><text fill="#000000" font-family="sans-serif" font-size="14" lengthAdjust="spacing" textLength="10" x="586.5" y="886.9951">R</text><text fill="#000000" font-family="sans-serif" font-size="14" lengthAdjust="spacing" textLength="8" x="586.5" y="903.292">a</text><text fill="#000000" font-family="sans-serif" font-size="14" lengthAdjust="spacing" textLength="84" x="586.5" y="919.5889">agents_info</text><text fill="#000000" font-family="sans-serif" font-size="14" lengthAdjust="spacing" textLength="162" x="586.5" y="935.8857">csv_writer : DictWriter</text><text fill="#000000" font-family="sans-serif" font-size="14" lengthAdjust="spacing" textLength="157" x="586.5" y="952.1826">data_storage_file : str</text><text fill="#000000" font-family="sans-serif" font-size="14" lengthAdjust="spacing" textLength="121" x="586.5" y="968.4795">field_names : list</text><text fill="#000000" font-family="sans-serif" font-size="14" lengthAdjust="spacing" textLength="56" x="586.5" y="984.7764">g : float</text><text fill="#000000" font-family="sans-serif" font-size="14" lengthAdjust="spacing" textLength="13" x="586.5" y="1001.0732">id</text><text fill="#000000" font-family="sans-serif" font-size="14" lengthAdjust="spacing" textLength="101" x="586.5" y="1017.3701">input_ref : list</text><text fill="#000000" font-family="sans-serif" font-size="14" lengthAdjust="spacing" textLength="61" x="586.5" y="1033.667">m : float</text><text fill="#000000" font-family="sans-serif" font-size="14" lengthAdjust="spacing" textLength="10" x="586.5" y="1049.9639">p</text><text fill="#000000" font-family="sans-serif" font-size="14" lengthAdjust="spacing" textLength="189" x="586.5" y="1066.2607">reveived_first_state : bool</text><text fill="#000000" font-family="sans-serif" font-size="14" lengthAdjust="spacing" textLength="123" x="586.5" y="1082.5576">total_time : float</text><text fill="#000000" font-family="sans-serif" font-size="14" lengthAdjust="spacing" textLength="8" x="586.5" y="1098.8545">v</text><text fill="#000000" font-family="sans-serif" font-size="14" lengthAdjust="spacing" textLength="116" x="586.5" y="1115.1514">velocity_control</text><line style="stroke:#181818;stroke-width:0.5;" x1="581.5" x2="989.5" y1="1122.4531" y2="1122.4531"/><text fill="#000000" font-family="sans-serif" font-size="14" lengthAdjust="spacing" textLength="61" x="586.5" y="1139.4482">D(r, a, p)</text><text fill="#000000" font-family="sans-serif" font-size="14" lengthAdjust="spacing" textLength="199" x="586.5" y="1155.7451">compute_desired_velocity()</text><text fill="#000000" font-family="sans-serif" font-size="14" lengthAdjust="spacing" textLength="254" x="586.5" y="1172.042">compute_v_coh(ri, others_position)</text><text fill="#000000" font-family="sans-serif" font-size="14" lengthAdjust="spacing" textLength="398" x="586.5" y="1188.3389">compute_v_frict(ri, vi, others_position, others_velocity)</text><text fill="#000000" font-family="sans-serif" font-size="14" lengthAdjust="spacing" textLength="324" x="586.5" y="1204.6357">compute_v_obstacle_term(ri, vi, agents_info)</text><text fill="#000000" font-family="sans-serif" font-size="14" lengthAdjust="spacing" textLength="253" x="586.5" y="1220.9326">compute_v_rep(ri, others_position)</text><text fill="#000000" font-family="sans-serif" font-size="14" lengthAdjust="spacing" textLength="126" x="586.5" y="1237.2295">input_reference()</text><text fill="#000000" font-family="sans-serif" font-size="14" lengthAdjust="spacing" textLength="45" x="586.5" y="1253.5264">start()</text><text fill="#000000" font-family="sans-serif" font-size="14" lengthAdjust="spacing" textLength="43" x="586.5" y="1269.8232">stop()</text><text fill="#000000" font-family="sans-serif" font-size="14" lengthAdjust="spacing" textLength="120" x="586.5" y="1286.1201">update(dt: float)</text><text fill="#000000" font-family="sans-serif" font-size="14" font-style="italic" lengthAdjust="spacing" textLength="266" x="586.5" y="1302.417">update_sensor(sensor_type: str, data)</text><text fill="#000000" font-family="sans-serif" font-size="14" lengthAdjust="spacing" textLength="193" x="586.5" y="1318.7139">update_state(state: State)</text></g><!--class utils.rotor_control_algorithm.PID--><g id="elem_utils.rotor_control_algorithm.PID"><rect codeLine="47" fill="#F1F1F1" height="145.7813" id="utils.rotor_control_algorithm.PID" rx="2.5" ry="2.5" style="stroke:#181818;stroke-width:0.5;" width="147" x="509" y="72"/><ellipse cx="566.25" cy="88" fill="#ADD1B2" rx="11" ry="11" style="stroke:#181818;stroke-width:1.0;"/><path d="M568.5938,83.6719 C567.6563,83.2344 567.0625,83.0938 566.1875,83.0938 C563.5625,83.0938 561.5625,85.1719 561.5625,87.8906 L561.5625,89.0156 C561.5625,91.5938 563.6719,93.4844 566.5625,93.4844 C567.7813,93.4844 568.9375,93.1875 569.6875,92.6406 C570.2656,92.2344 570.5938,91.7813 570.5938,91.3906 C570.5938,90.9375 570.2031,90.5469 569.7344,90.5469 C569.5156,90.5469 569.3125,90.625 569.125,90.8125 C568.6719,91.2969 568.6719,91.2969 568.4844,91.3906 C568.0625,91.6563 567.375,91.7813 566.6094,91.7813 C564.5625,91.7813 563.2656,90.6875 563.2656,88.9844 L563.2656,87.8906 C563.2656,86.1094 564.5156,84.7969 566.25,84.7969 C566.8281,84.7969 567.4375,84.9531 567.9063,85.2031 C568.3906,85.4844 568.5625,85.7031 568.6563,86.1094 C568.7188,86.5156 568.75,86.6406 568.8906,86.7656 C569.0313,86.9063 569.2656,87.0156 569.4844,87.0156 C569.75,87.0156 570.0156,86.875 570.1875,86.6563 C570.2969,86.5 570.3281,86.3125 570.3281,85.8906 L570.3281,84.4688 C570.3281,84.0313 570.3125,83.9063 570.2188,83.75 C570.0625,83.4844 569.7813,83.3438 569.4844,83.3438 C569.1875,83.3438 568.9844,83.4375 568.7656,83.75 L568.5938,83.6719 Z " fill="#000000"/><text fill="#000000" font-family="sans-serif" font-size="14" lengthAdjust="spacing" textLength="24" x="586.75" y="92.8467">PID</text><line style="stroke:#181818;stroke-width:0.5;" x1="510" x2="655" y1="104" y2="104"/><text fill="#000000" font-family="sans-serif" font-size="14" lengthAdjust="spacing" textLength="89" x="515" y="120.9951">integral : int</text><text fill="#000000" font-family="sans-serif" font-size="14" lengthAdjust="spacing" textLength="18" x="515" y="137.292">kd</text><text fill="#000000" font-family="sans-serif" font-size="14" lengthAdjust="spacing" textLength="13" x="515" y="153.5889">ki</text><text fill="#000000" font-family="sans-serif" font-size="14" lengthAdjust="spacing" textLength="19" x="515" y="169.8857">kp</text><text fill="#000000" font-family="sans-serif" font-size="14" lengthAdjust="spacing" textLength="109" x="515" y="186.1826">prev_error : int</text><line style="stroke:#181818;stroke-width:0.5;" x1="510" x2="655" y1="193.4844" y2="193.4844"/><text fill="#000000" font-family="sans-serif" font-size="14" lengthAdjust="spacing" textLength="135" x="515" y="210.4795">compute(error, dt)</text></g><!--class flocking_0.PegasusApp--><g id="elem_flocking_0.PegasusApp"><rect codeLine="55" fill="#F1F1F1" height="113.1875" id="flocking_0.PegasusApp" rx="2.5" ry="2.5" style="stroke:#181818;stroke-width:0.5;" width="119" x="691" y="88.5"/><ellipse cx="706" cy="104.5" fill="#ADD1B2" rx="11" ry="11" style="stroke:#181818;stroke-width:1.0;"/><path d="M708.3438,100.1719 C707.4063,99.7344 706.8125,99.5938 705.9375,99.5938 C703.3125,99.5938 701.3125,101.6719 701.3125,104.3906 L701.3125,105.5156 C701.3125,108.0938 703.4219,109.9844 706.3125,109.9844 C707.5313,109.9844 708.6875,109.6875 709.4375,109.1406 C710.0156,108.7344 710.3438,108.2813 710.3438,107.8906 C710.3438,107.4375 709.9531,107.0469 709.4844,107.0469 C709.2656,107.0469 709.0625,107.125 708.875,107.3125 C708.4219,107.7969 708.4219,107.7969 708.2344,107.8906 C707.8125,108.1563 707.125,108.2813 706.3594,108.2813 C704.3125,108.2813 703.0156,107.1875 703.0156,105.4844 L703.0156,104.3906 C703.0156,102.6094 704.2656,101.2969 706,101.2969 C706.5781,101.2969 707.1875,101.4531 707.6563,101.7031 C708.1406,101.9844 708.3125,102.2031 708.4063,102.6094 C708.4688,103.0156 708.5,103.1406 708.6406,103.2656 C708.7813,103.4063 709.0156,103.5156 709.2344,103.5156 C709.5,103.5156 709.7656,103.375 709.9375,103.1563 C710.0469,103 710.0781,102.8125 710.0781,102.3906 L710.0781,100.9688 C710.0781,100.5313 710.0625,100.4063 709.9688,100.25 C709.8125,99.9844 709.5313,99.8438 709.2344,99.8438 C708.9375,99.8438 708.7344,99.9375 708.5156,100.25 L708.3438,100.1719 Z " fill="#000000"/><text fill="#000000" font-family="sans-serif" font-size="14" lengthAdjust="spacing" textLength="87" x="720" y="109.3467">PegasusApp</text><line style="stroke:#181818;stroke-width:0.5;" x1="692" x2="809" y1="120.5" y2="120.5"/><text fill="#000000" font-family="sans-serif" font-size="14" lengthAdjust="spacing" textLength="19" x="697" y="137.4951">pg</text><text fill="#000000" font-family="sans-serif" font-size="14" lengthAdjust="spacing" textLength="60" x="697" y="153.792">timeline</text><text fill="#000000" font-family="sans-serif" font-size="14" lengthAdjust="spacing" textLength="39" x="697" y="170.0889">world</text><line style="stroke:#181818;stroke-width:0.5;" x1="692" x2="809" y1="177.3906" y2="177.3906"/><text fill="#000000" font-family="sans-serif" font-size="14" lengthAdjust="spacing" textLength="33" x="697" y="194.3857">run()</text></g><!--class utils.rotor_control_algorithm.RotorControl--><g id="elem_utils.rotor_control_algorithm.RotorControl"><rect codeLine="61" fill="#F1F1F1" height="145.7813" id="utils.rotor_control_algorithm.RotorControl" rx="2.5" ry="2.5" style="stroke:#181818;stroke-width:0.5;" width="695" x="20" y="360"/><ellipse cx="315.75" cy="376" fill="#ADD1B2" rx="11" ry="11" style="stroke:#181818;stroke-width:1.0;"/><path d="M318.0938,371.6719 C317.1563,371.2344 316.5625,371.0938 315.6875,371.0938 C313.0625,371.0938 311.0625,373.1719 311.0625,375.8906 L311.0625,377.0156 C311.0625,379.5938 313.1719,381.4844 316.0625,381.4844 C317.2813,381.4844 318.4375,381.1875 319.1875,380.6406 C319.7656,380.2344 320.0938,379.7813 320.0938,379.3906 C320.0938,378.9375 319.7031,378.5469 319.2344,378.5469 C319.0156,378.5469 318.8125,378.625 318.625,378.8125 C318.1719,379.2969 318.1719,379.2969 317.9844,379.3906 C317.5625,379.6563 316.875,379.7813 316.1094,379.7813 C314.0625,379.7813 312.7656,378.6875 312.7656,376.9844 L312.7656,375.8906 C312.7656,374.1094 314.0156,372.7969 315.75,372.7969 C316.3281,372.7969 316.9375,372.9531 317.4063,373.2031 C317.8906,373.4844 318.0625,373.7031 318.1563,374.1094 C318.2188,374.5156 318.25,374.6406 318.3906,374.7656 C318.5313,374.9063 318.7656,375.0156 318.9844,375.0156 C319.25,375.0156 319.5156,374.875 319.6875,374.6563 C319.7969,374.5 319.8281,374.3125 319.8281,373.8906 L319.8281,372.4688 C319.8281,372.0313 319.8125,371.9063 319.7188,371.75 C319.5625,371.4844 319.2813,371.3438 318.9844,371.3438 C318.6875,371.3438 318.4844,371.4375 318.2656,371.75 L318.0938,371.6719 Z " fill="#000000"/><text fill="#000000" font-family="sans-serif" font-size="14" lengthAdjust="spacing" textLength="95" x="336.25" y="380.8467">RotorControl</text><line style="stroke:#181818;stroke-width:0.5;" x1="21" x2="714" y1="392" y2="392"/><text fill="#000000" font-family="sans-serif" font-size="14" lengthAdjust="spacing" textLength="110" x="26" y="408.9951">MMA_pitch_PID</text><text fill="#000000" font-family="sans-serif" font-size="14" lengthAdjust="spacing" textLength="95" x="26" y="425.292">MMA_roll_PID</text><text fill="#000000" font-family="sans-serif" font-size="14" lengthAdjust="spacing" textLength="116" x="26" y="441.5889">MMA_thrust_PID</text><text fill="#000000" font-family="sans-serif" font-size="14" lengthAdjust="spacing" textLength="99" x="26" y="457.8857">MMA_yaw_PID</text><line style="stroke:#181818;stroke-width:0.5;" x1="21" x2="714" y1="465.1875" y2="465.1875"/><text fill="#000000" font-family="sans-serif" font-size="14" lengthAdjust="spacing" textLength="200" x="26" y="482.1826">MMA(roll, pitch, yaw, thrust)</text><text fill="#000000" font-family="sans-serif" font-size="14" lengthAdjust="spacing" textLength="683" x="26" y="498.4795">compute(desired_roll, desired_pitch, desired_yaw, desired_altitude, roll, pitch, yaw, altitude, dt)</text></g><!--class utils.rotor_control_algorithm.VelocityControl--><g id="elem_utils.rotor_control_algorithm.VelocityControl"><rect codeLine="69" fill="#F1F1F1" height="178.375" id="utils.rotor_control_algorithm.VelocityControl" rx="2.5" ry="2.5" style="stroke:#181818;stroke-width:0.5;" width="734" x="418.5" y="583"/><ellipse cx="724.75" cy="599" fill="#ADD1B2" rx="11" ry="11" style="stroke:#181818;stroke-width:1.0;"/><path d="M727.0938,594.6719 C726.1563,594.2344 725.5625,594.0938 724.6875,594.0938 C722.0625,594.0938 720.0625,596.1719 720.0625,598.8906 L720.0625,600.0156 C720.0625,602.5938 722.1719,604.4844 725.0625,604.4844 C726.2813,604.4844 727.4375,604.1875 728.1875,603.6406 C728.7656,603.2344 729.0938,602.7813 729.0938,602.3906 C729.0938,601.9375 728.7031,601.5469 728.2344,601.5469 C728.0156,601.5469 727.8125,601.625 727.625,601.8125 C727.1719,602.2969 727.1719,602.2969 726.9844,602.3906 C726.5625,602.6563 725.875,602.7813 725.1094,602.7813 C723.0625,602.7813 721.7656,601.6875 721.7656,599.9844 L721.7656,598.8906 C721.7656,597.1094 723.0156,595.7969 724.75,595.7969 C725.3281,595.7969 725.9375,595.9531 726.4063,596.2031 C726.8906,596.4844 727.0625,596.7031 727.1563,597.1094 C727.2188,597.5156 727.25,597.6406 727.3906,597.7656 C727.5313,597.9063 727.7656,598.0156 727.9844,598.0156 C728.25,598.0156 728.5156,597.875 728.6875,597.6563 C728.7969,597.5 728.8281,597.3125 728.8281,596.8906 L728.8281,595.4688 C728.8281,595.0313 728.8125,594.9063 728.7188,594.75 C728.5625,594.4844 728.2813,594.3438 727.9844,594.3438 C727.6875,594.3438 727.4844,594.4375 727.2656,594.75 L727.0938,594.6719 Z " fill="#000000"/><text fill="#000000" font-family="sans-serif" font-size="14" lengthAdjust="spacing" textLength="113" x="745.25" y="603.8467">VelocityControl</text><line style="stroke:#181818;stroke-width:0.5;" x1="419.5" x2="1151.5" y1="615" y2="615"/><text fill="#000000" font-family="sans-serif" font-size="14" lengthAdjust="spacing" textLength="162" x="424.5" y="631.9951">csv_writer : DictWriter</text><text fill="#000000" font-family="sans-serif" font-size="14" lengthAdjust="spacing" textLength="157" x="424.5" y="648.292">data_storage_file : str</text><text fill="#000000" font-family="sans-serif" font-size="14" lengthAdjust="spacing" textLength="121" x="424.5" y="664.5889">field_names : list</text><text fill="#000000" font-family="sans-serif" font-size="14" lengthAdjust="spacing" textLength="69" x="424.5" y="680.8857">pitch_PID</text><text fill="#000000" font-family="sans-serif" font-size="14" lengthAdjust="spacing" textLength="54" x="424.5" y="697.1826">roll_PID</text><text fill="#000000" font-family="sans-serif" font-size="14" lengthAdjust="spacing" textLength="96" x="424.5" y="713.4795">rotor_control</text><text fill="#000000" font-family="sans-serif" font-size="14" lengthAdjust="spacing" textLength="109" x="424.5" y="729.7764">total_time : int</text><line style="stroke:#181818;stroke-width:0.5;" x1="419.5" x2="1151.5" y1="737.0781" y2="737.0781"/><text fill="#000000" font-family="sans-serif" font-size="14" lengthAdjust="spacing" textLength="722" x="424.5" y="754.0732">compute(desired_xy_velocity, desired_yaw, desired_altitude, xy_velocity, yaw, roll, pitch, altitude, dt)</text></g><!--link utils.rotor_control_algorithm.PID to utils.rotor_control_algorithm.RotorControl--><g id="link_utils.rotor_control_algorithm.PID_utils.rotor_control_algorithm.RotorControl"><path codeLine="79" d="M550.427,218.09 C535.934,242.57 516.387,267.6 491.5,283 C445.608,311.4 286.227,272.55 250.5,313 C236.786,328.526 232.5968,335.1107 244.1498,350.3047 " fill="none" id="utils.rotor_control_algorithm.PID-to-utils.rotor_control_algorithm.RotorControl" style="stroke:#181818;stroke-width:1.0;"/><polygon fill="#181818" points="251.413,359.857,250.9655,352.6598,244.1498,350.3047,244.5973,357.5019,251.413,359.857" style="stroke:#181818;stroke-width:1.0;"/><text fill="#000000" font-family="sans-serif" font-size="13" lengthAdjust="spacing" textLength="83" x="251.5" y="326.0669">MMA_roll_PID</text></g><!--link utils.rotor_control_algorithm.PID to utils.rotor_control_algorithm.RotorControl--><g id="link_utils.rotor_control_algorithm.PID_utils.rotor_control_algorithm.RotorControl"><path codeLine="80" d="M548.22,218.17 C533.733,241.91 514.759,266.44 491.5,283 C448.122,313.89 409.496,272.01 375.5,313 C364.66,326.069 360.9342,331.0159 359.5312,347.9599 " fill="none" id="utils.rotor_control_algorithm.PID-to-utils.rotor_control_algorithm.RotorControl-1" style="stroke:#181818;stroke-width:1.0;"/><polygon fill="#181818" points="358.541,359.919,363.0225,354.2695,359.5312,347.9599,355.0498,353.6094,358.541,359.919" style="stroke:#181818;stroke-width:1.0;"/><text fill="#000000" font-family="sans-serif" font-size="13" lengthAdjust="spacing" textLength="95" x="376.5" y="326.0669">MMA_pitch_PID</text></g><!--link utils.rotor_control_algorithm.PID to utils.rotor_control_algorithm.RotorControl--><g id="link_utils.rotor_control_algorithm.PID_utils.rotor_control_algorithm.RotorControl"><path codeLine="81" d="M547.344,218.16 C528.585,253.45 503.764,295.63 476.5,330 C468.447,340.152 467.7454,341.6256 458.3704,351.2696 " fill="none" id="utils.rotor_control_algorithm.PID-to-utils.rotor_control_algorithm.RotorControl-2" style="stroke:#181818;stroke-width:1.0;"/><polygon fill="#181818" points="450.006,359.874,457.0564,358.3599,458.3704,351.2696,451.3201,352.7836,450.006,359.874" style="stroke:#181818;stroke-width:1.0;"/><text fill="#000000" font-family="sans-serif" font-size="13" lengthAdjust="spacing" textLength="91" x="488.5" y="326.0669">MMA_yaw_PID</text></g><!--link utils.rotor_control_algorithm.PID to utils.rotor_control_algorithm.RotorControl--><g id="link_utils.rotor_control_algorithm.PID_utils.rotor_control_algorithm.RotorControl"><path codeLine="82" d="M603.135,218.36 C609.143,254.54 609.343,297.42 588.5,330 C581.44,341.034 581.7131,342.8033 572.0651,351.6073 " fill="none" id="utils.rotor_control_algorithm.PID-to-utils.rotor_control_algorithm.RotorControl-3" style="stroke:#181818;stroke-width:1.0;"/><polygon fill="#181818" points="563.201,359.696,570.3293,358.6064,572.0651,351.6073,564.9368,352.6969,563.201,359.696" style="stroke:#181818;stroke-width:1.0;"/><text fill="#000000" font-family="sans-serif" font-size="13" lengthAdjust="spacing" textLength="102" x="596.5" y="326.0669">MMA_thrust_PID</text></g><!--link utils.rotor_control_algorithm.PID to utils.rotor_control_algorithm.VelocityControl--><g id="link_utils.rotor_control_algorithm.PID_utils.rotor_control_algorithm.VelocityControl"><path codeLine="83" d="M625.434,218.26 C639.628,239.94 656.236,263.2 673.5,283 C686.744,298.19 695.012,297.18 707.5,313 C768.303,390.01 783.6954,492.1987 786.6884,570.7967 " fill="none" id="utils.rotor_control_algorithm.PID-to-utils.rotor_control_algorithm.VelocityControl" style="stroke:#181818;stroke-width:1.0;"/><polygon fill="#181818" points="787.145,582.788,790.9138,576.6401,786.6884,570.7967,782.9196,576.9446,787.145,582.788" style="stroke:#181818;stroke-width:1.0;"/><text fill="#000000" font-family="sans-serif" font-size="13" lengthAdjust="spacing" textLength="47" x="781.5" y="437.5669">roll_PID</text></g><!--link utils.rotor_control_algorithm.PID to utils.rotor_control_algorithm.VelocityControl--><g id="link_utils.rotor_control_algorithm.PID_utils.rotor_control_algorithm.VelocityControl"><path codeLine="84" d="M619.866,218.04 C634.309,240.95 652.468,264.98 673.5,283 C734.647,335.393 794.47,291.94 837.5,360 C879.625,426.63 862.4556,505.5999 835.3886,571.6609 " fill="none" id="utils.rotor_control_algorithm.PID-to-utils.rotor_control_algorithm.VelocityControl-1" style="stroke:#181818;stroke-width:1.0;"/><polygon fill="#181818" points="830.839,582.765,836.8152,578.7295,835.3886,571.6609,829.4125,575.6964,830.839,582.765" style="stroke:#181818;stroke-width:1.0;"/><text fill="#000000" font-family="sans-serif" font-size="13" lengthAdjust="spacing" textLength="59" x="862.5" y="437.5669">pitch_PID</text></g><!--link utils.rotor_control_algorithm.RotorControl to utils.rotor_control_algorithm.VelocityControl--><g id="link_utils.rotor_control_algorithm.RotorControl_utils.rotor_control_algorithm.VelocityControl"><path codeLine="85" d="M494.616,506.073 C537.37,530.314 575.1162,551.7153 619.7872,577.0433 " fill="none" id="utils.rotor_control_algorithm.RotorControl-to-utils.rotor_control_algorithm.VelocityControl" style="stroke:#181818;stroke-width:1.0;"/><polygon fill="#181818" points="630.226,582.962,626.9795,576.523,619.7872,577.0433,623.0337,583.4823,630.226,582.962" style="stroke:#181818;stroke-width:1.0;"/><text fill="#000000" font-family="sans-serif" font-size="13" lengthAdjust="spacing" textLength="82" x="577.5" y="549.0669">rotor_control</text></g><!--link utils.rotor_control_algorithm.VelocityControl to flocking_algorithm.FlockingAlgorithm--><g id="link_utils.rotor_control_algorithm.VelocityControl_flocking_algorithm.FlockingAlgorithm"><path codeLine="86" d="M785.5,761.028 C785.5,784.336 785.5,798.67 785.5,825.972 " fill="none" id="utils.rotor_control_algorithm.VelocityControl-to-flocking_algorithm.FlockingAlgorithm" style="stroke:#181818;stroke-width:1.0;"/><polygon fill="#181818" points="785.5,837.972,789.5,831.972,785.5,825.972,781.5,831.972,785.5,837.972" style="stroke:#181818;stroke-width:1.0;"/><text fill="#000000" font-family="sans-serif" font-size="13" lengthAdjust="spacing" textLength="101" x="786.5" y="804.0669">velocity_control</text></g><!--SRC=[jLPDJ-Cm4BtpAonEOHNGddkh5gt40Ma5qkxHCiaqjUh4rdWIY13_VSTkFfmMbhA2Gr9xvir7tZmdzK2YKJLufmgu1wTGaKNHs0RE2gEy5-Vh2XhoDyt6dWlbnSROOgURIYfJMTIqhQzcX7W-4wBmdNna3w1OYMjTq9-uOSz6WobbhCSkepsnqJvuKeL9JSvwJTesmLHo0ZPrm7NP28cjG5044g5gZKBfhEahssG5TmCedt8nhFfSD6tDVirjvW9LgLj_mGag85dtSYoNwJAn3XNxn3grEeL8rPGpCicLYqxwhJPcYgKjjw8YLQzLNFWFQdlsHqyQc4yqBI59R3xIrWT8d8ai5QdirVOlpbx6cVySXhmUP_pMw8-0KG5tVAbmxPz6ipB-gOlGa_GiF0wG6ss00PxUL4p5I-v5XRKkmwrnBR4EDZEcJZ2EBuGET0SbfqTFN8oLmv07QmrxoP8oadGDILWtowwNXMq88_OwmrmePZzmMjYQIpEhu3L28eNKsN7qDaETYpZaUVnBq0QPamZhZg6J8Pte73igKpAXzPGZuNy9Ht1lzJDn2GXD0V51E3VIiB8kBbh7GuEif86lO7jMt0MgWbxsNkcXyHQp_O-ata6SQnu7FcVPJoEBzvMu3p-95d_TN4VrjQIDlqBBCXcdaGYHKL5wVCIXGcLuZhnamou8PAV3BUZ0iH0a85gS40CjMRHoRvGMXqhvrg-TMvw0xrUp9zPrLP0H2yXeVdNoORDeGcLicop9TnVQ_x7l_eIdIk6npEtjMZfDnLRo0mzxzfbaIrjiMU6peLUFyouBQ1Plo94BTkLY7v0891lLlCUEko5ctCROSQCCQMfBuBVhKVxPjw3szo3aqzauY7ZdO_F1bqhAQiBeefV3DyLIFoCNJ_Eturss5jY8MV1tIDtxP-3oyjj7DBLQAkYByi_SVb61KU9Vb3uvKfzHuL37A_6f0pXEVoh_YqV_l-T8Jyl7eaEza_vXh8w-ody1]--></g></svg>